<?xml version="1.0"?>
<svg xmlns="http://www.w3.org/2000/svg" viewBox="0 0 24 24" enable-background="new 0 0 24 24">
    <path style="text-indent:0;text-align:start;line-height:normal;text-transform:none;block-progression:tb;-inkscape-font-specification:Bitstream Vera Sans" d="M 4 4 C 3.4777778 4 2.9395305 4.1854695 2.5625 4.5625 C 2.1854695 4.9395305 2 5.4777778 2 6 L 2 18 C 2 18.522222 2.1854695 19.060469 2.5625 19.4375 C 2.9395305 19.814531 3.4777778 20 4 20 L 20 20 C 20.522222 20 21.060469 19.814531 21.4375 19.4375 C 21.814531 19.060469 22 18.522222 22 18 L 22 6 C 22 5.4777778 21.814531 4.9395305 21.4375 4.5625 C 21.060469 4.1854695 20.522222 4 20 4 L 4 4 z M 4 6 L 20 6 L 20 18 L 4 18 L 4 6 z M 7 8 L 7 9 L 6 9 L 6 15 L 7 15 L 7 16 L 10 16 L 10 15 L 11 15 L 11 9 L 10 9 L 10 8 L 7 8 z M 14 8 L 14 9 L 13 9 L 13 15 L 14 15 L 14 16 L 17 16 L 17 15 L 18 15 L 18 9 L 17 9 L 17 8 L 14 8 z M 8 10 L 9 10 L 9 14 L 8 14 L 8 10 z M 15 10 L 16 10 L 16 14 L 15 14 L 15 10 z"/>
</svg>
